<?xml version="1.0" encoding="UTF-8"?>
<svg version="1.1" xmlns="http://www.w3.org/2000/svg" width="720" height="720">
<path d="M0 0 C1.00190369 0.00281982 2.00380737 0.00563965 3.03607178 0.00854492 C50.82153314 0.20951137 99.19382416 9.84899765 142.27099609 31.21044922 C144.61194943 32.36784937 146.97010159 33.48375158 149.33203125 34.59765625 C167.91241797 43.48202062 185.53533235 54.13160463 201.703125 66.90087891 C203.47437612 68.29236993 205.26461038 69.6548863 207.0625 71.01171875 C216.0923258 77.87634446 224.37139632 85.40995251 232.5 93.3125 C233.28165527 94.07224121 234.06331055 94.83198242 234.86865234 95.61474609 C243.92628448 104.45896455 252.83824439 113.21291305 260.5 123.3125 C261.48542789 124.55982088 262.47254668 125.80580691 263.4609375 127.05078125 C299.34304507 172.61467546 321.94481364 226.223626 331.5 283.3125 C331.66516113 284.29009277 331.83032227 285.26768555 332.00048828 286.27490234 C344.57003063 364.95477805 325.21189322 450.01113868 281.5 516.3125 C280.98050781 517.10479004 280.46101562 517.89708008 279.92578125 518.71337891 C274.06844186 527.59503932 268.08584546 536.23539355 261.109375 544.28125 C259.59919314 546.035593 258.10811078 547.80756753 256.67138672 549.62255859 C250.84576269 556.95027848 244.52737803 563.5937767 237.88964844 570.18359375 C236.12719762 571.93531575 234.37571432 573.69749428 232.625 575.4609375 C225.90512149 582.18961383 219.01120435 588.45946009 211.5 594.3125 C210.77184082 594.88935547 210.04368164 595.46621094 209.29345703 596.06054688 C154.83363119 638.98785565 84.36795805 668.19428416 14.3671875 668.515625 C13.34021759 668.52263931 12.31324768 668.52965363 11.25515747 668.53688049 C7.96172649 668.55428112 4.66847525 668.56073221 1.375 668.5625 C0.25029297 668.56317474 -0.87441406 668.56384949 -2.03320312 668.56454468 C-18.08340681 668.54921976 -33.66998449 668.17317805 -49.5 665.3125 C-51.04107422 665.05509033 -51.04107422 665.05509033 -52.61328125 664.79248047 C-84.14364959 659.51067176 -114.65975362 650.10614554 -143.5 636.3125 C-144.36415527 635.90692871 -145.22831055 635.50135742 -146.11865234 635.08349609 C-167.79956638 624.87442593 -187.85343213 612.35878188 -206.5 597.3125 C-208.0159375 596.11367187 -208.0159375 596.11367187 -209.5625 594.890625 C-215.5337583 590.10683284 -221.1759974 585.017299 -226.77734375 579.8125 C-228.91480872 577.84983489 -231.07367288 575.96815074 -233.3125 574.125 C-236.47259511 571.46225642 -239.08723908 568.45002953 -241.7578125 565.3046875 C-243.39073643 563.43744265 -245.08929139 561.71987604 -246.875 560 C-292.55860063 514.92687064 -320.73030187 447.69609327 -330.5 385.3125 C-330.64953125 384.40419434 -330.7990625 383.49588867 -330.953125 382.56005859 C-340.96271783 319.36371763 -329.81923655 254.5195795 -304.5 196.3125 C-303.92596436 194.98847168 -303.92596436 194.98847168 -303.34033203 193.63769531 C-288.0497202 158.82320564 -264.87930563 125.74587952 -237.5 99.3125 C-235.05004713 96.87807773 -232.61593373 94.43199484 -230.2109375 91.953125 C-224.31162103 85.91569744 -218.10477629 80.5572194 -211.5 75.3125 C-210.33068227 74.35450878 -209.162781 73.39478675 -207.99609375 72.43359375 C-199.51000738 65.47883124 -190.77649301 59.16939408 -181.5 53.3125 C-180.92378906 52.94592285 -180.34757813 52.5793457 -179.75390625 52.20166016 C-168.08253832 44.82765814 -155.83323169 38.49629305 -143.5 32.3125 C-142.7059375 31.9103125 -141.911875 31.508125 -141.09375 31.09375 C-116.32863523 18.71119261 -88.6087879 10.55983106 -61.5 5.3125 C-60.6745166 5.14959473 -59.8490332 4.98668945 -58.99853516 4.81884766 C-39.49299596 1.04397355 -19.83419984 -0.08135745 0 0 Z " fill="#121212" transform="translate(359.5,25.6875)"/>
<path d="M0 0 C6.34578218 6.93953957 7.50142555 14.49500199 7.5234375 23.5859375 C6.20123818 46.40824747 -6.64827973 66.88592282 -22.4765625 82.5859375 C-22.96898437 83.13636719 -23.46140625 83.68679687 -23.96875 84.25390625 C-33.46758682 94.6918936 -46.29971105 101.13090677 -59.4765625 105.5859375 C-60.54390625 105.94945312 -60.54390625 105.94945312 -61.6328125 106.3203125 C-68.64991726 108.35157967 -76.2419988 108.76063533 -83.4765625 109.5859375 C-83.23421875 110.5346875 -82.991875 111.4834375 -82.7421875 112.4609375 C-80.59406593 121.09126184 -78.80235184 129.75932233 -77.2890625 138.5234375 C-77.12245117 139.44962891 -76.95583984 140.37582031 -76.78417969 141.33007812 C-75.8116671 147.1491781 -75.25713596 152.94875485 -74.93739319 158.83726501 C-74.89462566 159.62261594 -74.85185814 160.40796686 -74.80779463 161.2171163 C-74.37154586 169.80230329 -74.30169278 178.38030439 -74.27124023 186.97485352 C-74.26162647 188.73315645 -74.25161457 190.49145724 -74.24124146 192.24975586 C-74.21452943 196.96660912 -74.19333119 201.683472 -74.17323947 206.40035748 C-74.15111224 211.37181586 -74.12384413 216.34324626 -74.09718323 221.31468201 C-74.05313629 229.6569596 -74.01231546 237.99924748 -73.97387695 246.34155273 C-73.91989778 258.05640661 -73.86031459 269.77122688 -73.79948127 281.48604691 C-73.71796037 297.23525663 -73.63826225 312.98447758 -73.56467056 328.7337265 C-73.55674196 330.42139944 -73.54868501 332.10907178 -73.54047966 333.79674339 C-73.5185632 338.32152133 -73.49931286 342.84629402 -73.48439097 347.37110066 C-73.47900801 348.89405359 -73.4727267 350.41700353 -73.46569753 351.93994975 C-73.45529682 354.26428135 -73.44818417 356.58860294 -73.44178772 358.91294861 C-73.43804687 359.61146425 -73.43430602 360.30997989 -73.43045181 361.02966267 C-73.40644397 374.75028336 -76.08248717 388.66103133 -85.70703125 398.9921875 C-94.4820761 406.89553915 -106.3788381 410.39187688 -118.140625 409.8671875 C-132.78554445 408.10391961 -142.29978691 403.12099062 -151.4765625 391.5859375 C-151.7446875 392.09382813 -152.0128125 392.60171875 -152.2890625 393.125 C-156.36816641 400.29026806 -161.34216536 404.76608661 -169.2265625 407.3984375 C-174.91542007 408.88629256 -180.61937058 409.31635963 -186.4765625 409.5859375 C-187.7759375 409.6684375 -189.0753125 409.7509375 -190.4140625 409.8359375 C-201.03917473 409.614581 -210.80800492 406.45382897 -218.25390625 398.74609375 C-219.25744841 397.58551809 -220.23921788 396.40536706 -221.1875 395.19921875 C-222.51607105 393.53649195 -223.94835395 392.06499314 -225.4765625 390.5859375 C-225.98316406 391.4521875 -225.98316406 391.4521875 -226.5 392.3359375 C-226.94601562 393.0784375 -227.39203125 393.8209375 -227.8515625 394.5859375 C-228.29242188 395.3284375 -228.73328125 396.0709375 -229.1875 396.8359375 C-229.82558594 397.7021875 -229.82558594 397.7021875 -230.4765625 398.5859375 C-231.1365625 398.5859375 -231.7965625 398.5859375 -232.4765625 398.5859375 C-232.4765625 399.2459375 -232.4765625 399.9059375 -232.4765625 400.5859375 C-241.11124792 407.72845378 -252.94888863 410.28772157 -263.98046875 409.87109375 C-272.69606967 408.87541477 -280.0969532 406.30068788 -287.4765625 401.5859375 C-287.4765625 400.9259375 -287.4765625 400.2659375 -287.4765625 399.5859375 C-288.0746875 399.33457031 -288.6728125 399.08320312 -289.2890625 398.82421875 C-295.92328717 395.06877371 -298.7788386 386.30331047 -300.73046875 379.36328125 C-303.22457123 366.73607133 -302.63568138 353.40384732 -302.4765625 340.5859375 C-303.24355469 340.35261719 -304.01054687 340.11929687 -304.80078125 339.87890625 C-329.44101039 331.77996914 -350.62613719 317.12773824 -369.4765625 299.5859375 C-370.14300781 298.97363281 -370.80945313 298.36132812 -371.49609375 297.73046875 C-381.85236101 287.83822976 -390.19966151 275.86367572 -397.4765625 263.5859375 C-397.84491211 262.96976562 -398.21326172 262.35359375 -398.59277344 261.71875 C-413.68350229 236.06581977 -420.66533624 207.56703565 -420.66186523 177.98364258 C-420.6640406 175.91922006 -420.68223309 173.85534347 -420.70117188 171.79101562 C-420.75514992 159.30012344 -419.45784932 147.09429795 -416.3515625 134.9609375 C-416.13838379 134.12812256 -415.92520508 133.29530762 -415.70556641 132.43725586 C-403.9811452 88.53015994 -376.18033543 47.94361622 -336.84765625 24.5234375 C-335.73519531 23.8840625 -334.62273437 23.2446875 -333.4765625 22.5859375 C-332.89148926 22.24820313 -332.30641602 21.91046875 -331.70361328 21.5625 C-287.45594788 -3.74226538 -231.98965903 -6.24437246 -183.4765625 6.5859375 C-182.79819336 6.76463379 -182.11982422 6.94333008 -181.42089844 7.12744141 C-164.89439794 11.65637993 -147.65693112 19.57251084 -134.4765625 30.5859375 C-132.58104681 32.08633888 -130.68521878 33.58634576 -128.7890625 35.0859375 C-127.34953258 36.25009856 -125.91123349 37.4157937 -124.4765625 38.5859375 C-119.53785952 37.07560244 -116.51143605 34.18035567 -112.7890625 30.7734375 C-89.33561242 9.90963309 -30.52685219 -29.2347103 0 0 Z " fill="#ABB4BC" transform="translate(570.4765625,152.4140625)"/>
<path d="M0 0 C6.34578218 6.93953957 7.50142555 14.49500199 7.5234375 23.5859375 C6.20123818 46.40824747 -6.64827973 66.88592282 -22.4765625 82.5859375 C-22.96898437 83.13636719 -23.46140625 83.68679687 -23.96875 84.25390625 C-33.46758682 94.6918936 -46.29971105 101.13090677 -59.4765625 105.5859375 C-60.54390625 105.94945312 -60.54390625 105.94945312 -61.6328125 106.3203125 C-68.64991726 108.35157967 -76.2419988 108.76063533 -83.4765625 109.5859375 C-83.23421875 110.5346875 -82.991875 111.4834375 -82.7421875 112.4609375 C-80.59406593 121.09126184 -78.80235184 129.75932233 -77.2890625 138.5234375 C-77.12245117 139.44962891 -76.95583984 140.37582031 -76.78417969 141.33007812 C-75.8116671 147.1491781 -75.25713596 152.94875485 -74.93739319 158.83726501 C-74.89462566 159.62261594 -74.85185814 160.40796686 -74.80779463 161.2171163 C-74.37154586 169.80230329 -74.30169278 178.38030439 -74.27124023 186.97485352 C-74.26162647 188.73315645 -74.25161457 190.49145724 -74.24124146 192.24975586 C-74.21452943 196.96660912 -74.19333119 201.683472 -74.17323947 206.40035748 C-74.15111224 211.37181586 -74.12384413 216.34324626 -74.09718323 221.31468201 C-74.05313629 229.6569596 -74.01231546 237.99924748 -73.97387695 246.34155273 C-73.91989778 258.05640661 -73.86031459 269.77122688 -73.79948127 281.48604691 C-73.71796037 297.23525663 -73.63826225 312.98447758 -73.56467056 328.7337265 C-73.55674196 330.42139944 -73.54868501 332.10907178 -73.54047966 333.79674339 C-73.5185632 338.32152133 -73.49931286 342.84629402 -73.48439097 347.37110066 C-73.47900801 348.89405359 -73.4727267 350.41700353 -73.46569753 351.93994975 C-73.45529682 354.26428135 -73.44818417 356.58860294 -73.44178772 358.91294861 C-73.43804687 359.61146425 -73.43430602 360.30997989 -73.43045181 361.02966267 C-73.40644397 374.75028336 -76.08248717 388.66103133 -85.70703125 398.9921875 C-94.4820761 406.89553915 -106.3788381 410.39187688 -118.140625 409.8671875 C-132.78554445 408.10391961 -142.29978691 403.12099062 -151.4765625 391.5859375 C-151.7446875 392.09382813 -152.0128125 392.60171875 -152.2890625 393.125 C-156.36816641 400.29026806 -161.34216536 404.76608661 -169.2265625 407.3984375 C-174.91542007 408.88629256 -180.61937058 409.31635963 -186.4765625 409.5859375 C-187.7759375 409.6684375 -189.0753125 409.7509375 -190.4140625 409.8359375 C-201.03917473 409.614581 -210.80800492 406.45382897 -218.25390625 398.74609375 C-219.25744841 397.58551809 -220.23921788 396.40536706 -221.1875 395.19921875 C-222.51607105 393.53649195 -223.94835395 392.06499314 -225.4765625 390.5859375 C-225.98316406 391.4521875 -225.98316406 391.4521875 -226.5 392.3359375 C-226.94601562 393.0784375 -227.39203125 393.8209375 -227.8515625 394.5859375 C-228.29242188 395.3284375 -228.73328125 396.0709375 -229.1875 396.8359375 C-229.82558594 397.7021875 -229.82558594 397.7021875 -230.4765625 398.5859375 C-231.1365625 398.5859375 -231.7965625 398.5859375 -232.4765625 398.5859375 C-232.4765625 399.2459375 -232.4765625 399.9059375 -232.4765625 400.5859375 C-241.11124792 407.72845378 -252.94888863 410.28772157 -263.98046875 409.87109375 C-272.69606967 408.87541477 -280.0969532 406.30068788 -287.4765625 401.5859375 C-287.4765625 400.9259375 -287.4765625 400.2659375 -287.4765625 399.5859375 C-288.0746875 399.33457031 -288.6728125 399.08320312 -289.2890625 398.82421875 C-295.92328717 395.06877371 -298.7788386 386.30331047 -300.73046875 379.36328125 C-303.22457123 366.73607133 -302.63568138 353.40384732 -302.4765625 340.5859375 C-303.24355469 340.35261719 -304.01054687 340.11929687 -304.80078125 339.87890625 C-329.44101039 331.77996914 -350.62613719 317.12773824 -369.4765625 299.5859375 C-370.14300781 298.97363281 -370.80945313 298.36132812 -371.49609375 297.73046875 C-381.85236101 287.83822976 -390.19966151 275.86367572 -397.4765625 263.5859375 C-397.84491211 262.96976562 -398.21326172 262.35359375 -398.59277344 261.71875 C-413.68350229 236.06581977 -420.66533624 207.56703565 -420.66186523 177.98364258 C-420.6640406 175.91922006 -420.68223309 173.85534347 -420.70117188 171.79101562 C-420.75514992 159.30012344 -419.45784932 147.09429795 -416.3515625 134.9609375 C-416.13838379 134.12812256 -415.92520508 133.29530762 -415.70556641 132.43725586 C-403.9811452 88.53015994 -376.18033543 47.94361622 -336.84765625 24.5234375 C-335.73519531 23.8840625 -334.62273437 23.2446875 -333.4765625 22.5859375 C-332.89148926 22.24820313 -332.30641602 21.91046875 -331.70361328 21.5625 C-287.45594788 -3.74226538 -231.98965903 -6.24437246 -183.4765625 6.5859375 C-182.79819336 6.76463379 -182.11982422 6.94333008 -181.42089844 7.12744141 C-164.89439794 11.65637993 -147.65693112 19.57251084 -134.4765625 30.5859375 C-132.58104681 32.08633888 -130.68521878 33.58634576 -128.7890625 35.0859375 C-127.34953258 36.25009856 -125.91123349 37.4157937 -124.4765625 38.5859375 C-119.53785952 37.07560244 -116.51143605 34.18035567 -112.7890625 30.7734375 C-89.33561242 9.90963309 -30.52685219 -29.2347103 0 0 Z M-399.4765625 109.5859375 C-400.61208736 112.61308278 -401.74048014 115.6428401 -402.86767578 118.6730957 C-403.34658012 119.9493922 -403.34658012 119.9493922 -403.8351593 121.25147247 C-406.21795369 127.6726015 -408.04344623 134.04529534 -409.3515625 140.7734375 C-409.64933594 142.18979492 -409.64933594 142.18979492 -409.953125 143.63476562 C-415.65867962 171.33369126 -413.94434291 201.94473836 -404.4765625 228.5859375 C-404.18136719 229.59140625 -403.88617188 230.596875 -403.58203125 231.6328125 C-400.83462273 240.91629334 -396.18139402 249.17692105 -391.4765625 257.5859375 C-391.14930176 258.17624756 -390.82204102 258.76655762 -390.48486328 259.37475586 C-387.95603649 263.88014424 -385.2012754 268.21504367 -382.3515625 272.5234375 C-381.90941406 273.20728516 -381.46726562 273.89113281 -381.01171875 274.59570312 C-379.88723546 276.29601698 -378.68782025 277.94630811 -377.4765625 279.5859375 C-376.8165625 279.5859375 -376.1565625 279.5859375 -375.4765625 279.5859375 C-375.25097656 280.12734375 -375.02539062 280.66875 -374.79296875 281.2265625 C-373.07143585 284.31203987 -370.80792952 286.76761533 -368.4140625 289.3359375 C-367.67434204 290.13318237 -367.67434204 290.13318237 -366.91967773 290.9465332 C-352.9264419 305.85173343 -335.43343463 318.7817551 -316.4765625 326.5859375 C-315.40664063 327.05128906 -314.33671875 327.51664063 -313.234375 327.99609375 C-307.55204834 330.65170503 -307.55204834 330.65170503 -301.4765625 331.5859375 C-299.63150709 304.77214992 -299.63150709 304.77214992 -306.4765625 279.5859375 C-309.66566213 277.31004761 -312.88769594 277.21129836 -316.7265625 276.9609375 C-317.80421875 276.88617188 -318.881875 276.81140625 -319.9921875 276.734375 C-321.22195313 276.66089844 -321.22195313 276.66089844 -322.4765625 276.5859375 C-322.8065625 274.6059375 -323.1365625 272.6259375 -323.4765625 270.5859375 C-307.39574778 269.7728626 -307.39574778 269.7728626 -301.4765625 274.5859375 C-292.59681968 284.86774498 -294.33213681 301.40307368 -294.24676704 314.17837906 C-294.2300995 316.58455647 -294.20686112 318.99059339 -294.18186951 321.396698 C-294.11176204 328.22939858 -294.05097097 335.06215125 -293.99975586 341.89501953 C-293.96780859 346.09641764 -293.9265134 350.29764165 -293.87956047 354.49889755 C-293.86365815 356.08792861 -293.85128307 357.67699938 -293.84265327 359.26608658 C-293.76945561 372.54041567 -292.99218361 382.83763131 -284.1640625 393.3359375 C-280.82995921 396.12727979 -277.44747224 397.86600254 -273.4765625 399.5859375 C-272.5690625 399.9984375 -271.6615625 400.4109375 -270.7265625 400.8359375 C-260.21486819 403.26171311 -249.43976112 401.51677543 -240.0546875 396.21875 C-231.85848276 390.02537724 -229.55007028 379.19947356 -227.4765625 369.5859375 C-225.81044345 369.5432165 -224.14273365 369.54529918 -222.4765625 369.5859375 C-221.4765625 370.5859375 -221.4765625 370.5859375 -220.6640625 374.4609375 C-218.74574196 383.12788208 -216.95126208 390.5601923 -209.6953125 396.21875 C-199.2419282 402.66009596 -185.70271347 403.01188735 -174.0390625 400.3359375 C-167.74032014 398.52919298 -163.4141438 396.44415151 -159.7890625 390.8359375 C-156.37006566 384.27366936 -155.5686701 376.82226018 -154.4765625 369.5859375 C-152.1665625 369.5859375 -149.8565625 369.5859375 -147.4765625 369.5859375 C-147.5590625 370.6790625 -147.6415625 371.7721875 -147.7265625 372.8984375 C-147.69865253 380.76905014 -144.59517093 388.46042664 -139.171875 394.15625 C-131.69677605 400.46013529 -122.1495509 402.0827388 -112.63671875 401.90234375 C-104.67741822 401.10542985 -96.22553274 398.36573332 -90.4765625 392.5859375 C-81.2793274 381.32247424 -82.04754229 367.99481365 -82.10424805 354.25952148 C-82.10181734 352.19698402 -82.09809532 350.13444773 -82.09318542 348.07191467 C-82.08380693 342.48883547 -82.0931786 336.90593255 -82.10651755 331.32286716 C-82.11787491 325.46118075 -82.11372096 319.59950248 -82.11177063 313.73780823 C-82.11088852 303.88824607 -82.12194665 294.03875283 -82.14038086 284.18920898 C-82.161506 272.83765403 -82.16506656 261.48620029 -82.1588189 250.13462967 C-82.15310073 239.18042327 -82.15880235 228.22625216 -82.16999245 217.27205086 C-82.17461025 212.62777103 -82.17552453 207.98351298 -82.1734066 203.33923149 C-82.17150679 197.85375964 -82.17975621 192.36838906 -82.195467 186.88294029 C-82.1996688 184.88244292 -82.2005885 182.8819352 -82.19777679 180.88143539 C-82.18357342 168.95651329 -82.80333955 157.39511223 -84.4765625 145.5859375 C-84.70285623 143.83476864 -84.92841617 142.08350425 -85.15234375 140.33203125 C-86.77650217 123.89893058 -86.77650217 123.89893058 -93.4765625 109.5859375 C-95.10817633 109.48880575 -96.74402342 109.46222171 -98.37852573 109.46288967 C-99.44643583 109.46089862 -100.51434592 109.45890757 -101.61461693 109.45685619 C-102.80233427 109.45976903 -103.9900516 109.46268187 -105.21376038 109.46568298 C-106.46418182 109.46482856 -107.71460327 109.46397413 -109.00291628 109.46309382 C-112.48954995 109.46084651 -115.97615319 109.46487333 -119.46278298 109.46987188 C-123.21672005 109.47417284 -126.97065528 109.47273021 -130.72459412 109.4719696 C-137.23381523 109.47144414 -143.74302635 109.47459325 -150.25224495 109.48020744 C-159.66359103 109.48831946 -169.07493225 109.49093736 -178.48628145 109.49219543 C-193.75395925 109.49438643 -209.02163173 109.50104778 -224.28930664 109.51049805 C-239.12426731 109.51967095 -253.95922653 109.52675238 -268.79418945 109.53100586 C-270.16482634 109.53139994 -270.16482634 109.53139994 -271.56315286 109.53180199 C-276.14700802 109.53310699 -280.73086319 109.53437071 -285.31471837 109.53561389 C-323.36867014 109.54598797 -361.42261597 109.56360756 -399.4765625 109.5859375 Z " fill="#363C42" transform="translate(570.4765625,152.4140625)"/>
<path d="M0 0 C0.6084375 0.27199219 1.216875 0.54398438 1.84375 0.82421875 C12.31682382 5.72792493 22.09656165 12.67468432 31 20 C30.74721972 23.27082358 29.80041564 24.19657404 27.41015625 26.55078125 C26.30336956 27.48227359 25.18685961 28.4022966 24.0625 29.3125 C23.47130371 29.80032959 22.88010742 30.28815918 22.27099609 30.79077148 C17.35793829 34.80263715 12.27995036 38.48510509 7 42 C5.84578414 42.78822845 4.692181 43.57735457 3.5390625 44.3671875 C-12.97153343 55.61018904 -30.32478714 65.1985152 -49.0592041 72.22764206 C-50.42330797 72.7705 -51.76707527 73.36594428 -53.09216309 73.99809647 C-60.17780674 77.23206318 -66.45784156 77.57846113 -74.171875 77.54589844 C-75.45496048 77.55623611 -76.73804596 77.56657379 -78.06001282 77.57722473 C-81.55961283 77.60494346 -85.05885799 77.60849136 -88.55855179 77.60750484 C-92.26494185 77.61066783 -95.97118051 77.63638406 -99.67749023 77.65948486 C-106.7233855 77.70000436 -113.76918896 77.72035686 -120.81518269 77.73345876 C-128.70065609 77.74911842 -136.585961 77.78765316 -144.47134018 77.82805204 C-173.64752522 77.97574284 -202.82348013 78.01392099 -232 78 C-230.34387408 66.72816423 -222.62836451 57.22250438 -216.125 48.125 C-215.55362305 47.3215918 -214.98224609 46.51818359 -214.39355469 45.69042969 C-213.5838623 44.57909668 -213.5838623 44.57909668 -212.7578125 43.4453125 C-212.2745752 42.78031738 -211.79133789 42.11532227 -211.29345703 41.43017578 C-210.86661621 40.95821777 -210.43977539 40.48625977 -210 40 C-209.34 40 -208.68 40 -208 40 C-207.77441406 39.45214844 -207.54882812 38.90429688 -207.31640625 38.33984375 C-197.80867151 21.44033898 -175.63482216 9.44756744 -159 1 C-158.02804688 0.49984375 -157.05609375 -0.0003125 -156.0546875 -0.515625 C-108.78547497 -23.35518335 -47.13433541 -22.07223543 0 0 Z " fill="#E560E5" transform="translate(409,176)"/>
<path d="M0 0 C5.08712055 5.32936439 6.60439696 10.54923692 6.625 17.75 C5.28616879 42.98405779 -9.13169417 63.11865527 -27.375 79.75 C-47.48417372 96.12595738 -68.88174858 97.36578227 -93.74369168 97.15557575 C-97.25763838 97.13022921 -100.77160526 97.12819435 -104.28562927 97.12347412 C-110.91152003 97.11114042 -117.53714047 97.07845206 -124.16291326 97.03807616 C-131.71814344 96.99305547 -139.2733879 96.97129601 -146.82871926 96.95129442 C-162.34430163 96.90970832 -177.85961569 96.83954774 -193.375 96.75 C-190.92696609 94.30196609 -188.79328028 93.63971826 -185.5625 92.375 C-161.04126358 82.22649146 -139.40578753 65.88290716 -119.375 48.75 C-118.74335938 48.21068848 -118.11171875 47.67137695 -117.4609375 47.11572266 C-115.05803283 45.06156592 -112.65803713 43.00409428 -110.26245117 40.94140625 C-105.04273475 36.44860044 -99.75240519 32.05344749 -94.375 27.75 C-93.38242187 26.94949219 -92.38984375 26.14898437 -91.3671875 25.32421875 C-71.60815197 9.6065949 -25.1950536 -19.39520215 0 0 Z " fill="#E460E4" transform="translate(563.375,156.25)"/>
<path d="M0 0 C3.41040181 1.97664105 6.01679307 4.34204211 8.625 7.3125 C9.6459375 8.4571875 9.6459375 8.4571875 10.6875 9.625 C20.25027743 22.88949773 21.0432375 38.23831591 19.19140625 54.00390625 C17.14712224 64.55545911 12.18124014 74.23516707 3.6640625 80.9765625 C-1.66845057 84.47027796 -6.97247855 86.19560641 -13.375 85.3125 C-22.80086518 82.01802285 -28.44208882 76.21963254 -33.125 67.5625 C-39.90850002 52.76417158 -40.72941082 35.80983331 -35.65234375 20.34375 C-33.77253761 15.88280332 -31.35330791 12.10884981 -28.375 8.3125 C-27.86066406 7.57257813 -27.34632813 6.83265625 -26.81640625 6.0703125 C-26.34074219 5.49023438 -25.86507813 4.91015625 -25.375 4.3125 C-24.715 4.3125 -24.055 4.3125 -23.375 4.3125 C-23.375 3.6525 -23.375 2.9925 -23.375 2.3125 C-15.86663251 -2.22085396 -8.26385744 -3.82008504 0 0 Z " fill="#343A40" transform="translate(451.375,304.6875)"/>
<path d="M0 0 C9.16171538 5.03544662 15.85807871 13.95205286 18.83959961 23.96118164 C20.22281754 29.82812123 20.54889375 35.39144995 20.49609375 41.40625 C20.50769531 42.72206055 20.50769531 42.72206055 20.51953125 44.06445312 C20.48064152 57.25779373 16.97980537 69.04183148 7.93359375 79.03125 C2.64541363 83.76464336 -3.62338888 86.36893419 -10.75390625 86.15625 C-17.6741605 85.05727881 -23.06444717 81.09106194 -27.57421875 75.85546875 C-36.62372012 63.05428967 -39.76236348 47.34559015 -37.44921875 31.93945312 C-34.89108686 18.66588102 -29.07837787 7.97011326 -18.06640625 0.03125 C-12.02095102 -1.90785828 -6.01251246 -2.25149403 0 0 Z " fill="#343A40" transform="translate(354.75390625,304.03125)"/>
<path d="M0 0 C9.45988396 3.53680346 15.20745575 18.77624853 19.37109375 27.37109375 C22.5097916 34.36354052 24.00249288 40.32976376 23 48 C21 51.1875 21 51.1875 19 53 C14.15822862 51.60809747 12.30740681 49.23531639 9.4375 45.1875 C6.70740618 41.37861694 3.96156956 37.63312728 1 34 C0.41992188 34.73605469 -0.16015625 35.47210938 -0.7578125 36.23046875 C-11.4568224 49.59540356 -11.4568224 49.59540356 -16.75 50.4375 C-19 50 -19 50 -21 48 C-21.94843892 40.54797991 -19.3238289 35.55108167 -16 29 C-15.38717688 27.73280643 -14.776617 26.46451659 -14.16796875 25.1953125 C-9.93691592 16.45395736 -5.25807697 8.1668004 0 0 Z " fill="#363C42" transform="translate(401,419)"/>
</svg>
